<svg id="Layer_1" data-name="Layer 1" xmlns="http://www.w3.org/2000/svg" viewBox="0 0 274.76 69.14"><defs><style>.cls-1{fill:#37b9b9;}.cls-2{fill:#1a9db8;}.cls-3{fill:#fff;}</style></defs><path class="cls-1" d="M667.72,329.42c.45,5-1,9.59-1.27,14.35,0,.16,0,.4-.07.46-1.69,1.07-1.25,2.95-1.65,4.48-1,4-2.1,7.94-3.42,11.84a8.12,8.12,0,0,1,.14-3.54,241.69,241.69,0,0,0,2.88-29.17A54.79,54.79,0,0,0,664,316.9a3.93,3.93,0,0,0-.46-1.59c-.74-1.13-.09-1.23.81-1.43,1.87-.41,3.74-.78,5.59-1.31,2.13-.61,3.82.3,5.15,1.94,3,3.65,2.83,10.44-.29,14C673,330.61,671.1,330.89,667.72,329.42Zm5.92-5.21a.8.8,0,0,0,.45-.78c0-1.47.11-2.95,0-4.41a8.34,8.34,0,0,0-1.33-4.14c-.77-1.06-1.46-1.13-2.34-.21a7.4,7.4,0,0,0-1.8,4.07,14,14,0,0,0-.16,4.74c.19,1.74.5,3.47,1.89,4.77.65.62,1.29.69,1.86,0A4.68,4.68,0,0,0,673.64,324.21Z" transform="translate(-500.42 -291.42)"/><path class="cls-1" d="M588.25,305.08c-1.63,5-3.14,10-1.92,15.3a9.88,9.88,0,0,0,2.48,4.82c1.33,1.35,1.77,1.44,3.45.61a15.9,15.9,0,0,0,4.51-3.51c.29-.31.47-.75,1-.9,0,.12.1.25.06.32-2.18,3.72-4.77,7.08-8.61,9.25a12.54,12.54,0,0,1-3.24,1.21,3.77,3.77,0,0,1-4.13-1.43,9.44,9.44,0,0,1-2.25-6c-.35-10,3.18-18.36,10.11-25.43a3.85,3.85,0,0,1,1.19-1,3.7,3.7,0,0,1-.63,1.52A26.2,26.2,0,0,0,588.25,305.08Z" transform="translate(-500.42 -291.42)"/><path class="cls-2" d="M744.81,337.37c-.63-3.24-4.68-6.44-8.29-7-4.91-.71-9.48.65-14.12,1.8-1.23.3-2.48.55-3.72.82-.26-.6-1.15-1-.72-1.84,4.43-1.13,8.26-3.54,12.08-5.91a11.06,11.06,0,0,1,7.83-1.24,16.26,16.26,0,0,1,7.48,3.28,3.59,3.59,0,0,1,1.6,2.91c0,.79.15,1.58.23,2.37A19,19,0,0,0,744.81,337.37Z" transform="translate(-500.42 -291.42)"/><path class="cls-1" d="M744.81,337.37a19,19,0,0,1,2.37-4.78,21.31,21.31,0,0,1-3.62,11.56,26.29,26.29,0,0,1-9.46,9c-3.48,2-6.84,4.25-10.66,5.62s-7.94,2.43-12.16,1.37c-.66-.16-1.27-.46-1.92-.64-.25-.06-.59-.69-.82.18-.15.54-.66-.05-.92-.26a11.5,11.5,0,0,1-4.21-7.14,16.79,16.79,0,0,1,.77-8.34.58.58,0,0,1,.29-.36,37.71,37.71,0,0,0,.53,6.38,15.34,15.34,0,0,0,1.11,3.52,8.24,8.24,0,0,0,7.65,5,26.68,26.68,0,0,0,16.63-5.42c.24-.18.8-.28.21-.85-.33-.32.33-.5.59-.64a34.87,34.87,0,0,0,8.47-6.77A29.09,29.09,0,0,0,744.81,337.37Z" transform="translate(-500.42 -291.42)"/><path class="cls-1" d="M611.76,316.59a60.21,60.21,0,0,0-5.1,8.34,5.24,5.24,0,0,0-.68,2.63,2.34,2.34,0,0,0,3.43,2.15,44.48,44.48,0,0,0,8.61-5.57c.31-.23.61-.7,1-.54s.17.71.21,1.08c.15,1.38.23,2.77.44,4.14a4.76,4.76,0,0,0,2.05,3.55c-1.67.75-3.19,1.61-4.87.77-1.86-.91-1.7-2.79-1.76-4.47-.22-.19-.38-.08-.55,0a41,41,0,0,1-7.87,4c-3.19,1.31-5.38-.15-5.24-3.57.22-5,2.61-8.94,6.22-12.22a19.2,19.2,0,0,1,6.74-4.2A46.24,46.24,0,0,0,611.76,316.59Z" transform="translate(-500.42 -291.42)"/><path class="cls-1" d="M689.93,316.58a62.93,62.93,0,0,0-5.08,8.36,5.22,5.22,0,0,0-.69,2.63,2.34,2.34,0,0,0,3.44,2.14,45.29,45.29,0,0,0,8.34-5.34,2.86,2.86,0,0,1,1.34-.83c.18,1.76.29,3.49.55,5.2a4.58,4.58,0,0,0,1.59,3.24c.4.29.32.47-.08.66a7,7,0,0,1-3.21.81,2.75,2.75,0,0,1-2.61-2.25,7.9,7.9,0,0,1-.22-1.29c0-.43,0-.86-.07-1.29-.47-.15-.69.22-1,.4a34.07,34.07,0,0,1-7.94,3.85c-2.88.94-4.71-.43-4.71-3.24,0-4.92,2.24-8.88,5.67-12.21a19,19,0,0,1,7.27-4.68c0,.46-.36.67-.6,1A12.5,12.5,0,0,0,689.93,316.58Z" transform="translate(-500.42 -291.42)"/><path class="cls-2" d="M588.25,305.08a26.2,26.2,0,0,1,2-5.2,3.7,3.7,0,0,0,.63-1.52c2.2-2.05,7.64-1.74,9.56.54a1.75,1.75,0,0,1,.35.86l1.11,6.21a1.52,1.52,0,0,1-.25,1.35q-1.65,2-3.29,4.09c-.38.49-.63.54-.83-.15s-.62-1.64-.81-2.48a3.56,3.56,0,0,0-2.08-2.44A12.91,12.91,0,0,0,588.25,305.08Z" transform="translate(-500.42 -291.42)"/><path class="cls-1" d="M712.16,330.23c-2.09,2-5.89,2.68-8.15-.55a10.93,10.93,0,0,1-1.83-8.59c.45-2.57.65-5.2.89-7.81a1.21,1.21,0,0,1,1-1.25c1-.27,2-.58,2.95-.94s.92.05.84.75c-.23,2-.48,4-.61,6a23.94,23.94,0,0,0,.62,7.45C708.47,327.65,709.41,329.72,712.16,330.23Z" transform="translate(-500.42 -291.42)"/><path class="cls-1" d="M652.56,315.15a1.79,1.79,0,0,1,1.63-1.72,13.85,13.85,0,0,0,2.26-.73c.91-.37,1.29-.31,1.12.85a47,47,0,0,0-.5,9.85,15.64,15.64,0,0,0,1.06,5.1,4.69,4.69,0,0,0,3.65,3.25c-1.27,2-4.84,2.43-6.77.79a9.55,9.55,0,0,1-3.22-5.94c0-2.49.47-4.92.62-7.39C652.49,317.87,653.11,316.52,652.56,315.15Z" transform="translate(-500.42 -291.42)"/><path class="cls-1" d="M766.14,314.83c0-.37,0-.83.36-.95a35.15,35.15,0,0,1,4.07-1.33c.65-.15.4.56.37.87-.24,2.21-.5,4.42-.54,6.65a22.7,22.7,0,0,0,.83,7.65c.65,2,1.64,3.65,3.94,4-1.32,2.13-5.11,2.44-7.13.5a9.66,9.66,0,0,1-2.85-5.63,30.94,30.94,0,0,1,.32-5.09C765.71,319.3,766.13,317.08,766.14,314.83Z" transform="translate(-500.42 -291.42)"/><path class="cls-1" d="M640.77,314.45a38.8,38.8,0,0,1,4-1.78c.8-.37,1-.11.89.7a62.14,62.14,0,0,0-.3,7.84A26.21,26.21,0,0,0,646,327a3.43,3.43,0,0,0,.7,1.62c.78.82.31,1.18-.44,1.57-2.92,1.5-5.82-.1-6-3.33C640.17,322.71,640.66,318.58,640.77,314.45Z" transform="translate(-500.42 -291.42)"/><path class="cls-1" d="M754,314.67c1.35-1.09,3-1.44,4.6-2.1.64-.28.51.32.49.72-.11,2.3-.24,4.6-.28,6.91a25.94,25.94,0,0,0,.6,6.51,4.71,4.71,0,0,0,.93,2.16c.38.44.34.76-.16,1.05-1.29.75-2.65,1.28-4.07.54a4,4,0,0,1-2.39-3.58c0-.15-.17-.3-.16-.44.35-3.42.21-6.86.62-10.28A1.79,1.79,0,0,0,754,314.67Z" transform="translate(-500.42 -291.42)"/><path class="cls-1" d="M628.77,314.42c1.24-.73,2.62-1.13,3.91-1.73.81-.38,1-.08.92.68a78.61,78.61,0,0,0-.27,8,25.87,25.87,0,0,0,.64,5.54,4.58,4.58,0,0,0,.8,1.85c.49.59.29,1-.3,1.32a4,4,0,0,1-6.14-2.27c-.12-.38-.19-.77-.28-1.16Z" transform="translate(-500.42 -291.42)"/><path class="cls-1" d="M718,331.18c-.43.88.46,1.24.72,1.84-3.06.33-4.54-1.2-4.18-4.3.82-7.15,5.06-11.82,11.07-15.19a5.23,5.23,0,0,1,2-.84c.05.47-.31.7-.56,1a9.91,9.91,0,0,0-2,2.89,51.6,51.6,0,0,0-5.27,8.49c-.43.8-.86,1.61-1.24,2.44A4.62,4.62,0,0,0,718,331.18Z" transform="translate(-500.42 -291.42)"/><path class="cls-2" d="M689.93,316.58a12.5,12.5,0,0,1,2-2.87c.24-.3.61-.51.6-1a3.7,3.7,0,0,1,4.82,1.76,7.79,7.79,0,0,1,.29,5.11,1.33,1.33,0,0,1-.75.87c-.82.5-1.64,1-2.43,1.5s-1,.38-1-.48a5.47,5.47,0,0,0-1.19-3.42A4.79,4.79,0,0,0,689.93,316.58Z" transform="translate(-500.42 -291.42)"/><path class="cls-2" d="M611.76,316.59a46.24,46.24,0,0,1,2.62-3.88,3.83,3.83,0,0,1,5.26,3.18,7.68,7.68,0,0,1,.06,1.07c0,2.81-1.1,4.38-3.79,5.25-.51.16-.56-.09-.56-.45a6.56,6.56,0,0,0-.49-2.44A4.48,4.48,0,0,0,611.76,316.59Z" transform="translate(-500.42 -291.42)"/><path class="cls-2" d="M724.94,316.58a9.91,9.91,0,0,1,2-2.89c.25-.3.61-.53.56-1a3.78,3.78,0,0,1,4.79,1.9,7.92,7.92,0,0,1,.23,5,1,1,0,0,1-.37.59c-1.15.75-2.33,1.47-3.66,2.29C728.39,319.72,727.7,317.49,724.94,316.58Z" transform="translate(-500.42 -291.42)"/><path class="cls-1" d="M709.84,304.85c-.3.35-.43.55-.6.71-1.07,1-2.17,2-3.22,3-.4.38-.69.42-1.11,0-1.41-1.28-2.85-2.53-4.29-3.77-.4-.35-.38-.63,0-1,.83-.8,1.65-1.62,2.45-2.44a.8.8,0,0,1,1.15-.16c1.69,1.12,3.4,2.21,5.1,3.31Z" transform="translate(-500.42 -291.42)"/><path class="cls-2" d="M640.77,314.45c-.11,4.13-.6,8.26-.49,12.4-.51-.26-.71.21-1,.44a13.17,13.17,0,0,1-3.86,2c.32-.76.58-1.34.81-1.93,1.57-3.89,2.77-7.91,4-11.91C640.39,315.11,640.38,314.68,640.77,314.45Z" transform="translate(-500.42 -291.42)"/><path class="cls-2" d="M754,314.67a1.79,1.79,0,0,1,.18,1.49c-.41,3.42-.27,6.86-.62,10.28,0,.14.11.29.16.44-.5-.31-.71.18-1,.4a15.56,15.56,0,0,1-3.92,2.1C751,324.46,752.33,319.52,754,314.67Z" transform="translate(-500.42 -291.42)"/><path class="cls-2" d="M628.77,314.42l-.72,12.21a12.37,12.37,0,0,1-4.68,2.64,69.55,69.55,0,0,0,3-7.83c.67-2,1.3-4.09,1.93-6.14C628.37,315,628.42,314.61,628.77,314.42Z" transform="translate(-500.42 -291.42)"/><path class="cls-2" d="M766.14,314.83c0,2.25-.43,4.47-.63,6.7a30.94,30.94,0,0,0-.32,5.09c-.54-.17-.66.34-.92.6a8.1,8.1,0,0,1-3.28,2.06,133.86,133.86,0,0,0,5-14.16A1.08,1.08,0,0,1,766.14,314.83Z" transform="translate(-500.42 -291.42)"/><path class="cls-2" d="M652.56,315.15c.55,1.37-.07,2.72-.15,4.06-.15,2.47-.67,4.9-.62,7.39-.54-.15-.66.36-.92.61a8.81,8.81,0,0,1-3.33,2.13C649.72,324.61,651,319.84,652.56,315.15Z" transform="translate(-500.42 -291.42)"/><path class="cls-2" d="M673.64,324.21c-.81-2.41-1.94-4.55-4.59-5.4a3.81,3.81,0,0,0-.47-.07,7.4,7.4,0,0,1,1.8-4.07c.88-.92,1.57-.85,2.34.21a8.34,8.34,0,0,1,1.33,4.14c.15,1.46,0,2.94,0,4.41A.8.8,0,0,1,673.64,324.21Z" transform="translate(-500.42 -291.42)"/><path class="cls-3" d="M500.42,309.24v9.89a1.3,1.3,0,0,0,1.3,1.31h1.89V307.93h-1.89A1.31,1.31,0,0,0,500.42,309.24Z" transform="translate(-500.42 -291.42)"/><path class="cls-3" d="M519.31,303H509.06a1.63,1.63,0,0,0-1.62,1.63v19.21a1.63,1.63,0,0,0,1.62,1.63h10.25Z" transform="translate(-500.42 -291.42)"/><path class="cls-3" d="M518.28,328.7H511.1l7.43,20.56a2.37,2.37,0,0,0,2.23,1.57H528l-7.44-20.56A2.36,2.36,0,0,0,518.28,328.7Z" transform="translate(-500.42 -291.42)"/><path class="cls-3" d="M562.75,307.53l.11,12.88a6.47,6.47,0,0,0-.11-12.88Z" transform="translate(-500.42 -291.42)"/><path class="cls-3" d="M522.93,325.8c15.06,0,36.17,11,36.17,11V291.42c-14.22,9.1-36.17,10.9-36.17,10.9Z" transform="translate(-500.42 -291.42)"/></svg>